<svg width="75" height="76" viewBox="0 0 75 76" fill="none" xmlns="http://www.w3.org/2000/svg">
<path d="M37.6869 75.0019C58.1459 75.0019 74.9427 58.2539 74.9427 37.7949C74.9427 17.3359 58.1459 0.587891 37.6869 0.587891C17.2279 0.587891 0.479858 17.3359 0.479858 37.7949C0.479858 58.2539 17.2279 75.0019 37.6869 75.0019ZM26.5541 58.7422C22.9896 58.7422 21.1341 56.8379 21.1341 53.3223V20.5098C21.1341 16.9941 23.0873 15.1387 26.5541 15.1387H36.515V29.9824C36.515 31.9355 37.4916 32.9609 39.4935 32.9609H54.2396V53.3223C54.2396 56.8379 52.433 58.7422 48.8685 58.7422H26.5541ZM40.0306 30.9102C39.0052 30.9102 38.5169 30.373 38.5169 29.3477V15.4805C38.9076 15.5781 39.2494 15.9199 39.64 16.3105L53.1166 29.7383C53.5072 30.1289 53.849 30.5195 53.8978 30.9102H40.0306Z" fill="#007AFF"/>
</svg>
