<svg width="78" height="78" viewBox="0 0 78 78" fill="none" xmlns="http://www.w3.org/2000/svg">
<path d="M39.1078 77.4668C60.2992 77.4668 77.8285 59.9375 77.8285 38.7949C77.8285 17.6035 60.2504 0.0742188 39.1078 0.0742188C17.9164 0.0742188 0.435913 17.6035 0.435913 38.7949C0.435913 59.9375 17.9652 77.4668 39.1078 77.4668ZM25.7777 38.7949C25.7777 41.627 23.2387 44.166 20.3578 44.166C17.4281 44.166 14.9867 41.627 14.9867 38.7949C14.9867 35.8652 17.3793 33.375 20.3578 33.375C23.2387 33.375 25.7777 35.9141 25.7777 38.7949ZM44.4789 38.7949C44.4789 41.627 41.9887 44.166 39.1078 44.166C36.227 44.166 33.7367 41.627 33.7367 38.7949C33.7367 35.8652 36.1293 33.375 39.1078 33.375C41.9887 33.375 44.4789 35.9141 44.4789 38.7949ZM63.2289 38.7949C63.2289 41.627 60.7387 44.166 57.809 44.166C54.977 44.166 52.4379 41.627 52.4379 38.7949C52.4379 35.8652 54.8793 33.375 57.809 33.375C60.7387 33.375 63.2289 35.9141 63.2289 38.7949Z" fill="#4E4E4E"/>
</svg>
