<svg width="78" height="78" viewBox="0 0 78 78" fill="none" xmlns="http://www.w3.org/2000/svg">
<path d="M39.1078 77.4668C60.2992 77.4668 77.8285 59.9375 77.8285 38.7949C77.8285 17.6035 60.2504 0.0742188 39.1078 0.0742188C17.9164 0.0742188 0.435913 17.6035 0.435913 38.7949C0.435913 59.9375 17.9652 77.4668 39.1078 77.4668ZM39.1078 71.7539C20.8461 71.7539 6.19767 57.0566 6.19767 38.7949C6.19767 20.4844 20.7973 5.78712 39.1078 5.78712C57.3695 5.78712 72.0668 20.4844 72.1156 38.7949C72.1156 57.0566 57.4184 71.7539 39.1078 71.7539ZM39.059 56.9102C40.8656 56.9102 41.9398 55.6895 41.9398 53.7852V41.627H54.6352C56.4906 41.627 57.809 40.6016 57.809 38.8438C57.809 37.0371 56.5883 35.9629 54.6352 35.9629H41.9398V23.2188C41.9398 21.3145 40.8656 20.0449 39.059 20.0449C37.2523 20.0449 36.2758 21.3633 36.2758 23.2188V35.9629H23.5805C21.6762 35.9629 20.4066 37.0371 20.4066 38.8438C20.4066 40.6016 21.725 41.627 23.5805 41.627H36.2758V53.7852C36.2758 55.6406 37.2523 56.9102 39.059 56.9102Z" fill="#0A84FF"/>
</svg>
