<svg width="78" height="78" viewBox="0 0 78 78" fill="none" xmlns="http://www.w3.org/2000/svg">
<g filter="url(#filter0_b)">
<path d="M39.1078 77.4668C60.2992 77.4668 77.8285 59.9375 77.8285 38.7949C77.8285 17.6035 60.2504 0.0742188 39.1078 0.0742188C17.9164 0.0742188 0.435913 17.6035 0.435913 38.7949C0.435913 59.9375 17.9652 77.4668 39.1078 77.4668ZM39.1078 17.457C39.9379 17.457 40.5727 17.75 41.3051 18.4824L55.6605 32.8379C56.1 33.375 56.4418 34.0098 56.4418 34.7422C56.4418 36.2559 55.2699 37.4766 53.7562 37.4766C52.975 37.4766 52.2914 37.1348 51.8031 36.6465L46.0414 30.7871L41.598 25.709L41.891 33.9609V57.3984C41.891 59.0098 40.768 60.1328 39.1078 60.1328C37.4965 60.1328 36.3246 59.0098 36.3246 57.3984V33.9609L36.6176 25.7578L32.2719 30.7871L26.4613 36.6465C26.0219 37.0859 25.2895 37.4766 24.5082 37.4766C22.9945 37.4766 21.8715 36.2559 21.8715 34.7422C21.8715 34.0098 22.1156 33.375 22.6039 32.8379L36.9594 18.4824C37.6918 17.75 38.3266 17.457 39.1078 17.457Z" fill="#0A84FF"/>
</g>
<defs>
<filter id="filter0_b" x="-139.564" y="-139.926" width="357.393" height="357.393" filterUnits="userSpaceOnUse" color-interpolation-filters="sRGB">
<feFlood flood-opacity="0" result="BackgroundImageFix"/>
<feGaussianBlur in="BackgroundImage" stdDeviation="70"/>
<feComposite in2="SourceAlpha" operator="in" result="effect1_backgroundBlur"/>
<feBlend mode="normal" in="SourceGraphic" in2="effect1_backgroundBlur" result="shape"/>
</filter>
</defs>
</svg>
