<?xml version="1.0"?>
<svg xmlns="http://www.w3.org/2000/svg" height="512px" viewBox="-135 0 512 512.001" width="512px"><g><path d="m0 390.8125c0 66.824219 54.367188 121.1875 121.191406 121.1875 66.824219 0 121.1875-54.363281 121.1875-121.1875v-89.167969h-242.378906zm0 0" data-original="#000000" class="active-path" data-old_color="#000000" fill="#FFFFFF"/><path d="m106.1875 144.929688c-59.769531 7.414062-106.1875 58.515624-106.1875 120.261718v6.449219h106.1875zm0 0" data-original="#000000" class="active-path" data-old_color="#000000" fill="#FFFFFF"/><path d="m242.378906 271.644531v-6.453125c0-61.746094-46.417968-112.847656-106.1875-120.257812v126.710937zm0 0" data-original="#000000" class="active-path" data-old_color="#000000" fill="#FFFFFF"/><path d="m136.191406 144.929688v-16.441407c0-18.484375 15.039063-33.523437 33.523438-33.523437 35.027344 0 63.523437-28.496094 63.523437-63.523438v-31.441406h-30v31.4375c0 18.488281-15.039062 33.523438-33.523437 33.523438-35.027344 0-63.527344 28.5-63.527344 63.527343v16.441407c4.917969-.609376 9.921875-.925782 15-.925782 5.082031 0 10.085938.316406 15.003906.925782zm0 0" data-original="#000000" class="active-path" data-old_color="#000000" fill="#FFFFFF"/></g> </svg>
