<?xml version="1.0"?>
<svg xmlns="http://www.w3.org/2000/svg" height="512px" viewBox="0 -121 512 512" width="512px" class=""><g><path d="m0 0v270h512v-270zm91 120v30h-30v-30zm-30-30v-30h30v30zm90 30v30h-30v-30zm-30-30v-30h30v30zm30 90v30h-30v-30zm60-60v30h-30v-30zm-30-30v-30h30v30zm150 90v30h-150v-30zm-60-60v30h-30v-30zm-30-30v-30h30v30zm90 30v30h-30v-30zm-30-30v-30h30v30zm90 30v30h-30v-30zm-30-30v-30h30v30zm30 90v30h-30v-30zm60-60v30h-30v-30zm-30-30v-30h30v30zm0 0" data-original="#000000" class="active-path" data-old_color="#000000" fill="#6B6B6B"/></g> </svg>
