<?xml version="1.0"?>
<svg xmlns="http://www.w3.org/2000/svg" xmlns:xlink="http://www.w3.org/1999/xlink" version="1.1" id="Capa_1" x="0px" y="0px" viewBox="0 0 286 286" style="enable-background:new 0 0 286 286;" xml:space="preserve" width="512px" height="512px" class=""><g><path d="M276.008,126.209c-1.985,0-3.935,0.537-5.948,1.594l-41.487,21.742c-0.522,0.274-1.573,0.591-1.573,0.927v-13.795  c0-8.271-6.57-14.709-14.842-14.709h-4.162c14.319-13,23.373-31.282,23.373-51.849c0-38.055-30.959-69.087-69.012-69.087  c-33.65,0-61.735,24.177-67.789,56.092c-8.45-12.716-22.898-21.136-39.276-21.136c-25.988,0-47.132,21.28-47.132,47.268  c0,15.936,7.957,29.711,20.098,38.711H15.351C7.079,121.968,0,128.405,0,136.677V241.22c0,8.271,7.079,14.747,15.351,14.747H26  v14.008c0,8.272,7.367,14.992,15.639,14.992H185.87c8.271,0,15.13-6.721,15.13-14.992v-14.008h11.158  c8.271,0,14.842-6.476,14.842-14.747v-13.794c0,0.336,1.09,0.653,1.612,0.927l41.486,21.742c2.015,1.057,3.905,1.594,5.89,1.594  c5.977,0,10.012-4.679,10.012-11.376V137.585C286,130.887,281.984,126.209,276.008,126.209z M99.705,99.153  c4.049,8.746,9.872,15.814,17.012,22.814H82.325C90.257,115.968,96.398,108.443,99.705,99.153z M74,170.968c0,4.418-3.582,8-8,8H40  c-4.418,0-8-3.582-8-8v-11c0-4.418,3.582-8,8-8h26c4.418,0,8,3.582,8,8V170.968z M170,216.968c0,4.418-3.582,8-8,8H40  c-4.418,0-8-3.582-8-8v-11c0-4.418,3.582-8,8-8h122c4.418,0,8,3.582,8,8V216.968z" data-original="#000000" class="active-path" data-old_color="#000000" fill="#FFFFFF"/></g> </svg>
