<?xml version="1.0"?>
<svg xmlns="http://www.w3.org/2000/svg" xmlns:xlink="http://www.w3.org/1999/xlink" version="1.1" id="Capa_1" x="0px" y="0px" viewBox="0 0 512 512" style="enable-background:new 0 0 512 512;" xml:space="preserve" width="512px" height="512px" class=""><g><g>
	<g>
		<path d="M496,208h-16v-16c0-8.837-7.163-16-16-16h-16v-16c0-17.673-14.327-32-32-32H32c-17.673,0-32,14.327-32,32v192    c0,17.673,14.327,32,32,32h384c17.673,0,32-14.327,32-32v-16h16c8.837,0,16-7.163,16-16v-16h16c8.837,0,16-7.163,16-16v-64    C512,215.163,504.837,208,496,208z M416,192v160H112V160h304V192z" data-original="#000000" class="active-path" data-old_color="#000000" fill="#FFFFFF"/>
	</g>
</g></g> </svg>
