<?xml version="1.0"?>
<svg xmlns="http://www.w3.org/2000/svg" xmlns:xlink="http://www.w3.org/1999/xlink" version="1.1" id="Capa_1" x="0px" y="0px" viewBox="0 0 512 512" style="enable-background:new 0 0 512 512;" xml:space="preserve" width="512px" height="512px" class=""><g><path style="fill:#FFFFFF" d="M10.667,394.667h64c5.891,0,10.667,4.776,10.667,10.667v85.333c0,5.891-4.776,10.667-10.667,10.667  h-64C4.776,501.333,0,496.558,0,490.667v-85.333C0,399.442,4.776,394.667,10.667,394.667z" data-original="#80CBC4" class="" data-old_color="#80CBC4"/><path style="fill:#FFFFFF" d="M117.333,309.333h64c5.891,0,10.667,4.776,10.667,10.667v170.667c0,5.891-4.776,10.667-10.667,10.667  h-64c-5.891,0-10.667-4.776-10.667-10.667V320C106.667,314.109,111.442,309.333,117.333,309.333z" data-original="#4DB6AC" class="" data-old_color="#4DB6AC"/><path style="fill:#FFFFFF" d="M224,202.667h64c5.891,0,10.667,4.776,10.667,10.667v277.333c0,5.891-4.776,10.667-10.667,10.667h-64  c-5.891,0-10.667-4.776-10.667-10.667V213.333C213.333,207.442,218.109,202.667,224,202.667z" data-original="#26A69A" class="active-path" data-old_color="#26A69A"/><path style="fill:#FFFFFF" d="M330.667,96h64c5.891,0,10.667,4.776,10.667,10.667v384c0,5.891-4.776,10.667-10.667,10.667h-64  c-5.891,0-10.667-4.776-10.667-10.667v-384C320,100.776,324.776,96,330.667,96z" data-original="#009688" class="" data-old_color="#009688"/><path style="fill:#FFFFFF" d="M437.333,10.667h64c5.891,0,10.667,4.776,10.667,10.667v469.333c0,5.891-4.776,10.667-10.667,10.667  h-64c-5.891,0-10.667-4.776-10.667-10.667V21.333C426.667,15.442,431.442,10.667,437.333,10.667z" data-original="#00897B" class="" data-old_color="#00897B"/><path d="M74.667,501.333h-64C4.776,501.333,0,496.558,0,490.667v-85.333c0-5.891,4.776-10.667,10.667-10.667h64  c5.891,0,10.667,4.776,10.667,10.667v85.333C85.333,496.558,80.558,501.333,74.667,501.333z M21.333,480H64v-64H21.333V480z" data-original="#000000" class="" style="fill:#FFFFFF" data-old_color="#000000"/><path d="M181.333,501.333h-64c-5.891,0-10.667-4.776-10.667-10.667V320c0-5.891,4.776-10.667,10.667-10.667h64  c5.891,0,10.667,4.776,10.667,10.667v170.667C192,496.558,187.224,501.333,181.333,501.333z M128,480h42.667V330.667H128V480z" data-original="#000000" class="" style="fill:#FFFFFF" data-old_color="#000000"/><path d="M288,501.333h-64c-5.891,0-10.667-4.776-10.667-10.667V213.333c0-5.891,4.776-10.667,10.667-10.667h64  c5.891,0,10.667,4.776,10.667,10.667v277.333C298.667,496.558,293.891,501.333,288,501.333z M234.667,480h42.667V224h-42.667V480z" data-original="#000000" class="" style="fill:#FFFFFF" data-old_color="#000000"/><path d="M394.667,501.333h-64c-5.891,0-10.667-4.776-10.667-10.667v-384C320,100.776,324.776,96,330.667,96h64  c5.891,0,10.667,4.776,10.667,10.667v384C405.333,496.558,400.558,501.333,394.667,501.333z M341.333,480H384V117.333h-42.667V480z" data-original="#000000" class="" style="fill:#FFFFFF" data-old_color="#000000"/><path d="M501.333,501.333h-64c-5.891,0-10.667-4.776-10.667-10.667V21.333c0-5.891,4.776-10.667,10.667-10.667h64  c5.891,0,10.667,4.776,10.667,10.667v469.333C512,496.558,507.224,501.333,501.333,501.333z M448,480h42.667V32H448V480z" data-original="#000000" class="" style="fill:#FFFFFF" data-old_color="#000000"/></g> </svg>
