<?xml version="1.0"?>
<svg xmlns="http://www.w3.org/2000/svg" id="_20-beard" height="512px" viewBox="0 0 192 192" width="512px" data-name="20-beard"><g><path d="m177.856 16.177a7.951 7.951 0 0 0 -8.973 4.171 14.361 14.361 0 0 1 -3.977 4.465c-1.827 1.273-4.537 2.428-9.292.051a37.529 37.529 0 0 1 -4.6-4.618c-6.871-7.572-18.371-20.246-39.014-20.246-7.012 0-12.241 2.28-16 5.629-3.759-3.349-8.988-5.629-16-5.629-20.643 0-32.143 12.674-39.014 20.246a38.554 38.554 0 0 1 -4.564 4.6c-4.791 2.4-7.5 1.24-9.328-.032a14.4 14.4 0 0 1 -3.939-4.391 8 8 0 0 0 -15.155 3.577c0 10.3 6.159 31.819 29.47 39.59a48.36 48.36 0 0 0 14.934 2.1c11.85 0 25.658-3.236 35.684-10.464a39.915 39.915 0 0 0 7.912-7.483 39.915 39.915 0 0 0 7.912 7.487c10.027 7.228 23.834 10.464 35.684 10.464a48.365 48.365 0 0 0 14.934-2.1c23.311-7.775 29.47-29.294 29.47-39.594a8.025 8.025 0 0 0 -6.144-7.823z" data-original="#000000" class="active-path" data-old_color="#000000" fill="#FFFFFF"/><path d="m157.061 71.18a55.93 55.93 0 0 1 -17 2.506c-11.968 8.564-30.525 14.314-44.061 14.314s-32.092-5.75-44.065-14.314a55.907 55.907 0 0 1 -16.994-2.506 50.938 50.938 0 0 1 -17.235-9.634c-7.082 11.208-15.076 29.954-9.467 52.394a8 8 0 0 0 10.291 5.65l7.686-2.563a49.29 49.29 0 0 0 7.128 39.411 8 8 0 0 0 12.313 1.219l8.189-8.189a45.6 45.6 0 0 0 3.85 13.525c6.07 13.086 18.106 22.707 35.774 28.6a8.011 8.011 0 0 0 5.06 0c17.668-5.89 29.7-15.511 35.774-28.6a45.6 45.6 0 0 0 3.85-13.525l8.189 8.189a8 8 0 0 0 12.313-1.219 49.29 49.29 0 0 0 7.128-39.411l7.686 2.563a8 8 0 0 0 10.291-5.65c5.609-22.436-2.385-41.185-9.467-52.393a50.927 50.927 0 0 1 -17.233 9.633z" data-original="#000000" class="active-path" data-old_color="#000000" fill="#FFFFFF"/></g> </svg>
