<?xml version="1.0"?>
<svg xmlns="http://www.w3.org/2000/svg" xmlns:xlink="http://www.w3.org/1999/xlink" version="1.1" id="Capa_1" x="0px" y="0px" viewBox="0 0 182 182" style="enable-background:new 0 0 182 182;" xml:space="preserve" width="512px" height="512px"><g><path d="M163.555,92.88c-3.871-4.871-8.688-10.933-7.284-17.467c2.51-11.684,2.831-36.314-11.882-54.523  C133.189,7.028,115.87,0,92.913,0C66.431,0,46.101,6.863,32.488,20.398c-12.532,12.459-18.887,29.94-18.887,51.958  c0,32.006,20.937,46.416,32.184,54.157c2.149,1.48,4.811,3.312,5.437,4.124c0.951,2.791-2.059,8.87-4.436,12.157  c-0.639,0.879-0.893,1.98-0.703,3.051c0.189,1.071,0.808,2.018,1.71,2.624l48.976,32.853c0.479,0.321,1.011,0.527,1.557,0.618  c0.225,0.039,0.456,0.06,0.691,0.06c2.21,0,4-1.791,4-4c0-0.442-0.071-0.867-0.204-1.266c-0.402-1.978-2.127-12.977,6.759-22.823  c3.533-3.915,8.693-5.661,16.732-5.661c2.645,0,5.207,0.181,7.686,0.355c2.106,0.148,4.096,0.289,5.86,0.289c0,0,0.001,0,0.002,0  c2.385,0,5.103-0.21,7.175-1.764c4.521-3.391,5.636-7.761,6.532-11.271c0.329-1.288,0.64-2.505,1.082-3.547  c1.05-2.469,1.373-3.774,1.634-4.824c0.15-0.61,0.251-1.013,0.498-1.633c0.277-0.697,0.564-1.364,0.872-2.081  c0.441-1.029,0.923-2.152,1.478-3.569c0.226-0.577,0.484-1.111,0.757-1.677c0.958-1.982,2.038-4.22,1.846-8.184  c0.309-0.205,0.775-0.465,1.118-0.654c1.942-1.079,5.557-3.087,5.557-7.739C168.399,98.976,166.261,96.286,163.555,92.88z   M80.492,109.838c-0.293,0.167-5.539,3.098-12.129,3.098c-2.3,0-4.762-0.356-7.236-1.313c-6.476-2.502-11.242-8.313-14.167-17.27  c-2.74-8.394-2.131-14.975,1.813-19.561c6.748-7.851,20.142-5.877,21.647-5.626c2.18,0.363,3.651,2.424,3.288,4.603  s-2.426,3.64-4.6,3.289c-2.874-0.464-11.029-0.838-14.278,2.96c-1.986,2.32-2.075,6.308-0.265,11.853  c2.143,6.561,5.32,10.695,9.445,12.289c5.961,2.306,12.458-1.238,12.522-1.273c1.918-1.091,4.362-0.423,5.455,1.496  C83.082,106.302,82.412,108.744,80.492,109.838z" data-original="#000000" class="active-path" data-old_color="#000000" fill="#FFFFFF"/></g> </svg>
