<?xml version="1.0"?>
<svg xmlns="http://www.w3.org/2000/svg" id="Layer_1" enable-background="new 0 0 496 496" height="512px" viewBox="0 0 496 496" width="512px" class=""><g><path d="m435.987 93.65c-77.399-24.025-51.275-15.909-105.06-32.6l-11.05-48.6c-1.65-7.28-8.13-12.45-15.6-12.45h-112.56c-7.47 0-13.95 5.17-15.6 12.45l-11.05 48.6c-53.823 16.703-27.7 8.587-105.06 32.6-8.31 2.58-13.03 11.32-10.63 19.69l27.96 97.59c-9.313 29.772-5.442 63.036 14.2 92.4 11.779 17.653 32.461 91.837 8.15 172.03-3.12 10.295 4.614 20.64 15.31 20.64h266c10.712 0 18.426-10.359 15.31-20.64-17.779-58.646-9.699-102.96-8.66-114.95 3.212-18.184 7.244-42.699 16.75-56.99 19.963-30.023 23.513-62.804 14.26-92.5 10.75-37.8 25.97-91.16 27.65-96.6 3.047-8.472-1.554-17.947-10.32-20.67zm-171.99 342.35c0 8.836-7.163 16-16 16s-16-7.164-16-16v-12c0-8.836 7.163-16 16-16s16 7.164 16 16zm113.76-150.31c-9.665 14.524-14.728 33.27-18.256 50.853-.752 3.749-4.026 6.457-7.85 6.457h-207.18c-3.78 0-7.048-2.641-7.824-6.34-3.468-16.524-9.321-37.34-18.5-51.099-19.798-29.609-17.61-64.153 3.47-90.89 12.03-15.24 18.66-34.47 18.66-54.14v-32.395c0-3.506 2.282-6.603 5.63-7.641l1.8-.558c5.148-1.596 10.37 2.251 10.37 7.641 0 54.338 42.045 91.709 89.485 91.932 49.696.234 90.355-41.405 90.355-91.102 0-7.087 5.77-9.898 10.37-8.471l1.8.558c3.348 1.038 5.63 4.136 5.63 7.641v32.395c0 19.67 6.63 38.9 18.66 54.14 20.392 25.863 23.861 60.217 3.38 91.019z" data-original="#000000" class="active-path" data-old_color="#000000" fill="#FFFFFF"/></g> </svg>
