<?xml version="1.0"?>
<svg xmlns="http://www.w3.org/2000/svg" xmlns:xlink="http://www.w3.org/1999/xlink" version="1.1" id="Capa_1" x="0px" y="0px" width="512px" height="512px" viewBox="0 0 446.511 446.512" style="enable-background:new 0 0 446.511 446.512;" xml:space="preserve" class=""><g><g>
	<g>
		<path d="M92.126,328.075c79.289-0.024,105.305-77.011,116.414-109.884l0.613-1.806c2.09-6.143,4.182-11.415,6.24-15.61    c1.522-3.086,5.057-4.188,7.858-4.188c2.793,0,6.332,1.102,7.851,4.16c2.063,4.224,4.155,9.483,6.248,15.639l0.612,1.806    c11.108,32.873,37.121,109.859,116.416,109.884l0.024-4.088v4.088c0,0,0.004,0,0.02,0c27.676,0,49.94-11.081,66.146-32.929    c26.489-35.694,28.758-91.667,23.896-107.688c-11.125-36.684-52.822-54.882-76.686-62.466    c-13.678-4.348-40.872-6.556-80.807-6.556c-33.262,0-63.642,1.587-63.511,1.603c-0.307-0.016-30.677-1.603-63.933-1.603    c-39.934,0-67.128,2.208-80.804,6.556c-23.866,7.584-65.567,25.782-76.684,62.466c-4.857,16.021-2.579,71.977,23.9,107.679    C42.146,316.994,64.409,328.075,92.126,328.075z M252.538,166.582c0.101-0.311,10.319-30.85,68.038-30.85    c3.759,0,7.69,0.126,11.846,0.399c65.165,4.296,91.658,38.037,94.54,65.624c2.02,19.317-0.457,62.835-24.285,89.292    c-13.148,14.57-31.158,21.973-53.596,21.973c-37.842-0.017-62.219-27.516-76.005-50.578    C250.297,224.295,245.453,179.915,252.538,166.582z M19.54,201.755c2.883-27.587,29.378-61.328,94.547-65.624    c4.135-0.272,8.083-0.399,11.836-0.399c57.276,0,67.637,29.619,68.347,31.566c6.78,12.616,1.931,56.996-20.847,95.143    c-13.784,23.07-38.151,50.569-76.053,50.582c-22.389,0-40.407-7.39-53.547-21.969C19.989,264.598,17.516,221.072,19.54,201.755z" data-original="#000000" class="active-path" data-old_color="#000000" fill="#FFFFFF"/>
	</g>
</g></g> </svg>
