<?xml version="1.0"?>
<svg xmlns="http://www.w3.org/2000/svg" xmlns:xlink="http://www.w3.org/1999/xlink" version="1.1" id="Capa_1" x="0px" y="0px" viewBox="0 0 175.437 175.437" style="enable-background:new 0 0 175.437 175.437;" xml:space="preserve" width="512px" height="512px" class=""><g><path d="M173.471,120.809c-1.72,16.17-19.242,46.498-19.987,47.781c-0.729,1.255-2.06,1.991-3.459,1.991  c-0.358,0-0.72-0.048-1.078-0.148c-1.756-0.491-2.957-2.107-2.921-3.931c0.006-0.334,0.664-33.464,0.992-42.306  c0.299-8.079-2.848-23.115-6.813-28.495c-3.035-4.119-5.09-12.28-6.309-18.645c-5.352,4.398-15.159,9.979-32.086,12.634  c-2.171,0.34-4.736,0.506-7.84,0.506c-3.489,0-7.271-0.202-11.276-0.415c-4.395-0.234-8.94-0.477-13.524-0.477  c-11.266,0-25.298,1.312-33.878,11.543c-15.214,18.14-14.389,60.765-14.259,65.197c0.023,0.176,0.036,0.354,0.036,0.536  c0,2.194-1.767,3.976-3.955,4c-0.023,0-0.046,0-0.069,0c-1.855,0-3.5-1.291-3.904-3.148C12.375,163.926-5.49,81.309,1.704,59.727  c4.857-14.572,12.545-26.551,22.851-35.604C39.108,11.338,58.453,4.856,82.052,4.856c45.337,0,58.521,23.771,61.729,32.016  c6.176,0.972,21.044,4.644,27.045,17.845C177.649,69.727,175.412,102.568,173.471,120.809z" data-original="#000000" class="active-path" data-old_color="#000000" fill="#FFFFFF"/></g> </svg>
