<?xml version="1.0"?>
<svg xmlns="http://www.w3.org/2000/svg" xmlns:xlink="http://www.w3.org/1999/xlink" version="1.1" id="Capa_1" x="0px" y="0px" viewBox="0 0 512 512" style="enable-background:new 0 0 512 512;" xml:space="preserve" width="512px" height="512px"><g><g>
	<g>
		<path d="M485.25,210.51l-71.516-11.828l21.766-21.766c3.979-3.969,9.479-6.25,15.083-6.25h50.75    c5.896,0,10.667-4.771,10.667-10.667s-4.771-10.667-10.667-10.667h-50.75c-11.229,0-22.229,4.552-30.167,12.5l-32.568,32.568    l-8.1-1.34L349.042,147c-7.938-11.896-21.208-19-35.5-19h-157.75c-14.292,0-27.563,7.104-35.5,19l-30.883,46.326L24.25,209.615    C9.979,213.177,0,225.948,0,240.656v53.594c0,12.573,4.896,24.396,13.792,33.292c8.771,8.76,20.896,13.792,33.292,13.792h27.583    c0.375,0,0.691-0.176,1.056-0.214C80.598,365.535,102.164,384,128,384c25.827,0,47.391-18.451,52.275-42.853    c0.355,0.036,0.677,0.207,1.038,0.207L320,341.333c0.375,0,0.691-0.176,1.056-0.214c4.874,24.415,26.441,42.88,52.277,42.88    s47.402-18.465,52.277-42.88c0.365,0.038,0.681,0.214,1.056,0.214h46.75c8.125,0,15.438-4.51,19.083-11.792l17.25-34.521    c0.375-0.75,0.667-1.542,0.854-2.354l1.125-4.771c0.188-0.792,0.271-1.604,0.271-2.417v-43.406    C512,226.354,500.75,213.083,485.25,210.51z M128,362.667c-17.646,0-32-14.354-32-32c0-17.646,14.354-32,32-32s32,14.354,32,32    C160,348.313,145.646,362.667,128,362.667z M115.931,192l22.111-33.167c3.958-5.948,10.604-9.5,17.75-9.5h157.75    c7.146,0,13.792,3.552,17.75,9.5L353.402,192H115.931z M373.333,362.667c-17.646,0-32-14.354-32-32c0-17.646,14.354-32,32-32    c17.646,0,32,14.354,32,32C405.333,348.313,390.979,362.667,373.333,362.667z" data-original="#000000" class="active-path" data-old_color="#000000" fill="#FFFFFF"/>
	</g>
</g></g> </svg>
