<?xml version="1.0"?>
<svg xmlns="http://www.w3.org/2000/svg" height="512px" viewBox="0 0 512 512" width="512px" class=""><g><path d="m241 91v90h144.871094l-75-90zm0 0" data-original="#000000" class="active-path" fill="#000000"/><path d="m353.03125 0h-353.03125v512h365.894531l3.175781-11.722656c18.855469-63.3125 68.898438-112.355469 132.207032-131.207032l10.722656-3.175781v-175.328125zm-172.03125 331h-120v-30c0-33.089844 26.910156-60 60-60s60 26.910156 60 60zm-120-120v-150h263.9375l124.976562 150zm0 0" data-original="#000000" class="active-path" fill="#000000"/><path d="m91 91h120v90h-120zm0 0" data-original="#000000" class="active-path" fill="#000000"/><path d="m121 271c-16.539062 0-30 13.460938-30 30h60c0-16.539062-13.460938-30-30-30zm0 0" data-original="#000000" class="active-path" fill="#000000"/></g> </svg>
