<?xml version="1.0"?>
<svg xmlns="http://www.w3.org/2000/svg" xmlns:xlink="http://www.w3.org/1999/xlink" version="1.1" id="Capa_1" x="0px" y="0px" viewBox="0 0 512 512" style="enable-background:new 0 0 512 512;" xml:space="preserve" width="512px" height="512px" class=""><g><g>
	<g>
		<path d="M446.479,261.188l-55.826-93.043c2.393-1.956,4.013-4.81,4.013-8.145V74.667C394.667,68.771,389.896,64,384,64h-1.505    c-3.048-13.035-10.828-24.598-22.245-32.208L325.99,8.958C317.198,3.104,306.969,0,296.417,0h-80.833    C205.031,0,194.802,3.104,186,8.958l-34.25,22.833C140.333,39.402,132.555,50.965,129.507,64H128    c-5.896,0-10.667,4.771-10.667,10.667V160c0,3.335,1.62,6.189,4.013,8.145l-55.826,93.043c-3.031,5.042-1.396,11.604,3.656,14.625    c5.052,3.063,11.615,1.396,14.635-3.667L128,198.5v132.167v10.667c-5.896,0-10.667,4.771-10.667,10.667v85.333    c0,5.896,4.771,10.667,10.667,10.667h1.078c5.232,36.089,36.074,64,73.589,64h106.667c37.514,0,68.357-27.911,73.589-64H384    c5.896,0,10.667-4.771,10.667-10.667V352c0-5.896-4.771-10.667-10.667-10.667v-10.667V198.5l44.188,73.646    c3.021,5.063,9.583,6.729,14.635,3.667C447.875,272.792,449.51,266.229,446.479,261.188z M180.448,116.792    c3.917-6.333,10.698-10.125,18.146-10.125h114.812c7.448,0,14.229,3.792,18.146,10.125c3.917,6.333,4.271,14.083,0.938,20.75    l-21.333,42.667C307.521,187.479,300.208,192,292.073,192h-72.146c-8.135,0-15.448-4.521-19.083-11.792l-21.333-42.667    C176.177,130.875,176.531,123.125,180.448,116.792z M149.333,313.41V185.75l21.333,21.333v95.667L149.333,313.41z     M338.208,402.208c-1,1-25.115,24.458-82.208,24.458s-81.208-23.458-82.208-24.458c-3.25-3.25-4.052-8.208-2-12.313l21.333-42.667    c2.635-5.229,9.063-7.354,14.281-4.792C207.594,342.542,227.187,352,256,352c29.146,0,48.375-9.438,48.562-9.542    c2.542-1.271,5.438-1.438,8.146-0.583c2.677,0.896,4.896,2.833,6.167,5.354l21.333,42.667    C342.26,394,341.458,398.958,338.208,402.208z M362.667,313.41l-21.333-10.66v-95.667l21.333-21.333V313.41z" data-original="#000000" class="active-path" data-old_color="#000000" fill="#FFFFFF"/>
	</g>
</g></g> </svg>
