<?xml version="1.0"?>
<svg xmlns="http://www.w3.org/2000/svg" height="512px" viewBox="0 0 510.63488 510.63488" width="512px" class=""><g><path d="m70.898438 354.964844 27.773437-27.773438 84.765625 84.773438-27.773438 27.773437zm0 0" data-original="#000000" class="active-path" data-old_color="#000000" fill="#FFFFFF"/><path d="m334.761719 185.015625c-3.695313 0-7.027344-2.230469-8.445313-5.644531-1.414062-3.417969-.632812-7.347656 1.984375-9.964844l169.398438-169.40625-57.152344 5.304688c-.894531.050781-1.667969.640624-1.957031 1.488281l-7.179688 18.945312c-7.28125 19.152344-22.292968 34.359375-41.351562 41.890625l-1.582032.632813c-14.148437 5.671875-25.316406 16.941406-30.867187 31.140625-7.285156 19.5-22.605469 34.921875-42.054687 42.339844-14.382813 5.515624-25.734376 16.886718-31.222657 31.277343l-.394531 1.042969c-6.4375 16.574219-18.675781 30.246094-34.441406 38.472656 17.597656 14.722656 33.847656 30.988282 48.550781 48.601563 8.152344-15.773438 21.820313-28.003907 38.398437-34.367188l.914063-.375c14.519531-5.480469 26.003906-16.90625 31.5625-31.394531.121094-.3125.257813-.617188.410156-.914062 7.5-18.90625 22.574219-33.804688 41.5625-41.082032 14.410157-5.492187 25.792969-16.871094 31.296875-31.277344.117188-.3125.25-.617187.402344-.914062 7.5-18.847656 22.503906-33.726562 41.417969-41.070312l19.828125-7.578126c.808594-.320312 1.378906-1.058593 1.484375-1.917968l5.3125-57.308594-169.410157 169.398438c-1.714843 1.714843-4.039062 2.679687-6.464843 2.679687zm0 0" data-original="#000000" class="active-path" data-old_color="#000000" fill="#FFFFFF"/><path d="m145.203125 505.71875c11.53125 6.554688 25.664063 6.554688 37.195313 0 58.613281-33.199219 107.113281-81.683594 140.332031-140.289062 6.554687-11.53125 6.554687-25.660157 0-37.191407-33.214844-58.605469-81.714844-107.09375-140.332031-140.289062-11.53125-6.558594-25.664063-6.558594-37.195313 0-58.597656 33.207031-107.082031 81.691406-140.285156 140.289062-6.558594 11.53125-6.558594 25.660157 0 37.191407 33.199219 58.601562 81.6875 107.089843 140.285156 140.289062zm94.382813-100.964844c.320312-.253906 32.464843-25.753906 34.375-57.242187.351562-16.445313-6.574219-32.203125-18.921876-43.0625-3.464843-3.589844-3.417968-9.292969.109376-12.816407 3.527343-3.527343 9.230468-3.578124 12.816406-.113281 16.183594 14.519531 25.066406 35.484375 24.246094 57.207031-2.484376 39.761719-39.808594 69.210938-41.378907 70.398438-3.984375 3.066406-9.695312 2.34375-12.785156-1.621094s-2.402344-9.679687 1.539063-12.796875zm-181.613282-62.703125 27.765625-27.785156c3.429688-3.429687 8.082031-5.355469 12.933594-5.355469s9.503906 1.925782 12.933594 5.355469l84.761719 84.765625c3.429687 3.429688 5.359374 8.082031 5.359374 12.933594 0 4.847656-1.929687 9.5-5.359374 12.929687l-27.785157 27.769531c-7.140625 7.136719-18.714843 7.136719-25.855469 0l-84.753906-84.753906c-7.140625-7.140625-7.140625-18.71875 0-25.859375zm0 0" data-original="#000000" class="active-path" data-old_color="#000000" fill="#FFFFFF"/></g> </svg>
