<?xml version="1.0"?>
<svg xmlns="http://www.w3.org/2000/svg" xmlns:xlink="http://www.w3.org/1999/xlink" version="1.1" id="Layer_1" x="0px" y="0px" viewBox="0 0 512 512" style="enable-background:new 0 0 512 512;" xml:space="preserve" width="512px" height="512px" class=""><g><g>
	<g>
		<polygon points="351.067,170.863 322.93,145.913 276.4,145.913 276.4,123.219 291.366,123.219 291.366,89.828 172.742,89.828     172.742,123.219 187.709,123.219 187.709,145.913 139.265,145.913 111.127,170.863 66.783,170.863 66.783,187.559 66.783,253.795     33.391,253.795 33.391,211.179 0,211.179 0,329.804 33.391,329.804 33.391,287.186 66.783,287.186 66.783,353.422 66.783,370.118     139.265,370.118 197.974,422.172 395.388,422.172 395.388,170.863   " data-original="#000000" class="active-path" data-old_color="#000000" fill="#FFFFFF"/>
	</g>
</g><g>
	<g>
		<path d="M494.32,196.801l-4.858-8.131h-60.683v214.625h60.683l4.858-8.132c1.81-3.027,17.68-31.537,17.68-99.181    S496.13,199.829,494.32,196.801z" data-original="#000000" class="active-path" data-old_color="#000000" fill="#FFFFFF"/>
	</g>
</g></g> </svg>
