<svg width="31" height="25" viewBox="0 0 31 25" fill="none" xmlns="http://www.w3.org/2000/svg">
<path fill-rule="evenodd" clip-rule="evenodd" d="M26.8477 24.5391C29.501 24.5391 30.834 23.2188 30.834 20.6035V7.31152C30.834 4.69629 29.501 3.38867 26.8477 3.38867H23.3896C22.3994 3.38867 22.082 3.18555 21.5234 2.55078L20.4951 1.4082C19.8604 0.709961 19.2129 0.329102 17.9053 0.329102H12.8398C11.5322 0.329102 10.8848 0.709961 10.25 1.4082L9.23438 2.55078C8.67578 3.17285 8.3584 3.38867 7.36816 3.38867H3.98633C1.33301 3.38867 0 4.69629 0 7.31152V20.6035C0 23.2188 1.33301 24.5391 3.98633 24.5391H26.8477ZM15.3486 20.25C11.4732 20.25 8.35499 17.1403 8.35499 13.25C8.35499 9.35969 11.4732 6.25 15.3486 6.25C19.2368 6.25 22.355 9.35969 22.355 13.25C22.355 17.1403 19.2368 20.25 15.3486 20.25ZM15.349 18C17.9738 18 20.105 15.8835 20.105 13.25C20.105 10.6165 17.9738 8.5 15.349 8.5C12.7241 8.5 10.605 10.6165 10.605 13.25C10.605 15.8835 12.7362 18 15.349 18Z" fill="white" fill-opacity="0.45"/>
</svg>
