<svg width="75" height="76" viewBox="0 0 75 76" fill="none" xmlns="http://www.w3.org/2000/svg">
<path d="M74.4427 37.8438C74.4427 58.0257 57.8706 74.5508 37.6869 74.5508C17.5041 74.5508 0.979858 58.0266 0.979858 37.8438C0.979858 17.661 17.5041 1.13672 37.6869 1.13672C57.8706 1.13672 74.4427 17.6618 74.4427 37.8438ZM13.9447 39.6992C13.9447 40.5802 14.5789 41.3223 15.5189 41.3223H37.6869C38.5978 41.3223 39.3099 40.6101 39.3099 39.6992V11.0859C39.3099 10.1801 38.5519 9.56052 37.6869 9.56052C36.8892 9.56052 36.1615 10.2086 36.1615 11.0859V38.1738H15.5189C14.6079 38.1738 13.9447 38.886 13.9447 39.6992Z" fill="white" stroke="white"/>
</svg>
