<svg width="83" height="71" viewBox="0 0 83 71" fill="none" xmlns="http://www.w3.org/2000/svg">
<path d="M70.4749 70.707C78.1897 70.707 82.1448 66.8496 82.1448 59.2324V12.4062C82.1448 4.74022 78.1897 0.882812 70.4749 0.882812H37.5159C33.1214 0.882812 29.4593 1.95702 26.3831 5.17972L3.62921 28.666C1.23663 31.1562 0.162415 33.3535 0.162415 35.7461C0.162415 38.0898 1.1878 40.3359 3.62921 42.7773L26.4319 66.0684C29.5081 69.2422 33.1214 70.707 37.5159 70.707H70.4749ZM61.5882 52.3965C60.7581 52.3965 60.0745 52.1035 59.4886 51.5176L48.0628 40.0918L36.637 51.5176C36.0511 52.1035 35.3187 52.3965 34.4886 52.3965C32.7796 52.3965 31.4124 51.0293 31.4124 49.3203C31.4124 48.5391 31.7054 47.8066 32.3401 47.1719L43.7171 35.7949L32.3401 24.3691C31.7054 23.7832 31.4124 23.002 31.4124 22.2207C31.4124 20.5117 32.7796 19.0957 34.4886 19.0957C35.3187 19.0957 36.0511 19.4375 36.637 20.0234L48.0628 31.4004L59.4397 20.0234C60.0745 19.4375 60.8069 19.0957 61.5882 19.0957C63.346 19.0957 64.7132 20.5117 64.7132 22.2207C64.7132 23.002 64.3714 23.7832 63.7854 24.3691L52.4085 35.7949L63.7854 47.1719C64.3714 47.8066 64.7132 48.5391 64.7132 49.3203C64.7132 51.0293 63.2972 52.3965 61.5882 52.3965Z" fill="#323232"/>
</svg>
