<svg width="80" height="76" viewBox="0 0 80 76" fill="none" xmlns="http://www.w3.org/2000/svg">
<path d="M11.5862 22.6094C17.6897 22.6094 22.719 17.5801 22.719 11.5254C22.719 5.42191 17.6897 0.343811 11.5862 0.343811C5.43382 0.343811 0.404541 5.42191 0.404541 11.5254C0.404541 17.5801 5.43382 22.6094 11.5862 22.6094ZM39.7112 22.6094C45.8147 22.6094 50.844 17.5801 50.844 11.4766C50.844 5.42191 45.8147 0.343811 39.7112 0.343811C33.5588 0.343811 28.5295 5.42191 28.5295 11.4766C28.5295 17.5801 33.5588 22.6094 39.7112 22.6094ZM67.885 22.6094C73.9885 22.6094 79.0178 17.5801 79.0178 11.4766C79.0178 5.42191 73.9885 0.343811 67.885 0.343811C61.7327 0.343811 56.7034 5.42191 56.7034 11.4766C56.7034 17.5801 61.7327 22.6094 67.885 22.6094ZM11.5862 48.9766C17.6897 48.9766 22.719 43.9473 22.719 37.8438C22.719 31.7402 17.6897 26.6621 11.5862 26.6621C5.43382 26.6621 0.404541 31.7402 0.404541 37.8438C0.404541 43.9473 5.43382 48.9766 11.5862 48.9766ZM39.7112 48.9766C45.8147 48.9766 50.844 43.9473 50.844 37.8438C50.844 31.7402 45.8147 26.6621 39.7112 26.6621C33.5588 26.6621 28.5295 31.7402 28.5295 37.8438C28.5295 43.9473 33.5588 48.9766 39.7112 48.9766ZM67.885 48.9766C73.9885 48.9766 79.0178 43.9473 79.0178 37.8438C79.0178 31.7402 73.9885 26.6621 67.885 26.6621C61.7327 26.6621 56.7034 31.7402 56.7034 37.8438C56.7034 43.9473 61.7327 48.9766 67.885 48.9766ZM11.5862 75.2461C17.6897 75.2461 22.719 70.2168 22.719 64.1133C22.719 58.0586 17.6897 52.9805 11.5862 52.9805C5.43382 52.9805 0.404541 58.0586 0.404541 64.1133C0.404541 70.2168 5.43382 75.2461 11.5862 75.2461ZM39.7112 75.2461C45.8147 75.2461 50.844 70.2168 50.844 64.1133C50.844 58.0586 45.8147 52.9805 39.7112 52.9805C33.5588 52.9805 28.5295 58.0586 28.5295 64.1133C28.5295 70.2168 33.5588 75.2461 39.7112 75.2461ZM67.885 75.2461C73.9885 75.2461 79.0178 70.2168 79.0178 64.1133C79.0178 58.0586 73.9885 52.9805 67.885 52.9805C61.7327 52.9805 56.7034 58.0586 56.7034 64.1133C56.7034 70.2168 61.7327 75.2461 67.885 75.2461Z" fill="white"/>
</svg>
