<svg width="78" height="78" viewBox="0 0 78 78" fill="none" xmlns="http://www.w3.org/2000/svg">
<path d="M39.1078 77.4668C60.2992 77.4668 77.8285 59.9375 77.8285 38.7949C77.8285 17.6035 60.2504 0.0742188 39.1078 0.0742188C17.9164 0.0742188 0.435913 17.6035 0.435913 38.7949C0.435913 59.9375 17.9652 77.4668 39.1078 77.4668ZM39.1078 71.7539C20.8461 71.7539 6.19767 57.0566 6.19767 38.7949C6.19767 20.4844 20.7973 5.78712 39.1078 5.78712C57.3695 5.78712 72.0668 20.4844 72.1156 38.7949C72.1156 57.0566 57.4184 71.7539 39.1078 71.7539ZM38.8637 24.7324C41.4027 24.7324 43.4047 22.6816 43.4047 20.1426C43.4047 17.6035 41.4027 15.5527 38.8637 15.5527C36.3246 15.5527 34.2738 17.6035 34.2738 20.1426C34.2738 22.6816 36.3246 24.7324 38.8637 24.7324ZM32.3207 59.7422H47.9945C49.3617 59.7422 50.4359 58.7168 50.4359 57.3008C50.4359 55.9824 49.3617 54.9082 47.9945 54.9082H42.8188V34.4492C42.8188 32.6426 41.891 31.4219 40.182 31.4219H32.9066C31.5395 31.4219 30.4164 32.4961 30.4164 33.8145C30.4164 35.1816 31.5395 36.207 32.9066 36.207H37.4965V54.9082H32.3207C30.9535 54.9082 29.8793 55.9824 29.8793 57.3008C29.8793 58.7168 30.9535 59.7422 32.3207 59.7422Z" fill="#007AFF"/>
</svg>
