<svg width="75" height="76" viewBox="0 0 75 76" fill="none" xmlns="http://www.w3.org/2000/svg">
<path d="M37.687 75.0508C58.146 75.0508 74.9428 58.3027 74.9428 37.8438C74.9428 17.3848 58.146 0.636719 37.687 0.636719C17.228 0.636719 0.479919 17.3848 0.479919 37.8438C0.479919 58.3027 17.228 75.0508 37.687 75.0508ZM37.687 15.2363C44.9135 15.2363 50.6264 21.6816 50.6264 29.2988C50.6264 37.4043 45.0112 43.6543 37.687 43.6543C30.3628 43.6543 24.7963 37.4043 24.7963 29.2988C24.7475 21.6816 30.5092 15.2363 37.687 15.2363ZM62.5405 60.3047V60.8418C56.9741 67.1895 48.478 71.9258 37.687 71.9258C26.9448 71.9258 18.4487 67.1895 12.8335 60.8418V60.3047C17.5698 54.543 27.7749 50.2949 37.687 50.2949C47.6479 50.2949 57.853 54.543 62.5405 60.3047Z" fill="white"/>
</svg>
