<svg width="81" height="77" viewBox="0 0 81 77" fill="none" xmlns="http://www.w3.org/2000/svg">
<path d="M15.931 76.539C16.6634 77.0762 17.5423 77.0762 18.8607 76.1484L40.7357 60.1328L62.6107 76.1484C63.8802 77.0762 64.7591 77.0762 65.4916 76.539C66.2728 76.0019 66.5658 75.1719 66.0287 73.5605L57.6302 47.877L79.6029 32.0078C80.8724 31.0801 81.1654 30.1523 80.8724 29.3223C80.6283 28.4922 79.8959 27.9062 78.2357 27.9062L51.1361 27.9551L42.8353 2.22269C42.347 0.660187 41.6146 0.122986 40.7357 0.122986C39.808 0.122986 39.0755 0.660187 38.5873 2.22269L30.2865 27.9551L3.1869 27.9062C1.57555 27.9062 0.794304 28.4922 0.550164 29.3223C0.257194 30.1523 0.550164 31.0801 1.86852 32.0078L23.8412 47.877L15.3939 73.5605C14.9056 75.1719 15.1986 76.0019 15.931 76.539Z" fill="white"/>
</svg>
