<svg width="80" height="80" viewBox="0 0 80 80" fill="none" xmlns="http://www.w3.org/2000/svg">
<path d="M39.8202 79.1992C61.3534 79.1992 79.2734 61.3281 79.2734 39.7949C79.2734 18.2617 61.3046 0.390625 39.7714 0.390625C18.287 0.390625 0.415894 18.2617 0.415894 39.7949C0.415894 61.3281 18.3359 79.1992 39.8202 79.1992ZM29.8105 49.2676C20.1913 39.6973 14.1366 27.6855 21.3144 20.5078C21.8027 20.0684 22.3398 19.5801 22.7792 19.0918C25.0741 16.8457 27.0761 17.3828 28.9316 20.0195L33.8632 27.0996C35.6698 29.7363 35.1327 31.0059 33.3749 32.8613L31.8124 34.5703C31.2265 35.1074 31.4706 35.8887 31.7148 36.3281C32.496 37.7441 34.5956 40.1367 36.7441 42.334C39.039 44.5801 41.2851 46.582 42.7988 47.4121C43.3359 47.7051 44.1171 47.8027 44.6054 47.3145L46.2655 45.752C48.0234 44.043 49.4394 43.457 52.0273 45.2637C54.6152 47.0703 56.8612 48.6816 59.1073 50.2441C61.6952 52.002 62.4765 54.1504 60.0351 56.3477C59.5468 56.7871 59.0585 57.373 58.6191 57.8125C51.4902 64.9414 39.5273 58.9355 29.8105 49.2676Z" fill="#007AFF"/>
</svg>
