<?xml version="1.0"?>
<svg xmlns="http://www.w3.org/2000/svg" height="512px" viewBox="0 -86 436.358 436" width="512px"><g><path d="m100.15625 122.488281h-25.664062c-2.949219-.074219-5.554688-1.953125-6.558594-4.734375-1.019532-2.792968-.234375-5.925781 1.976562-7.910156l34.738282-30.058594-13.890626-12.003906-90.757812 78.707031h100.15625zm0 0" data-original="#000000" class="active-path" data-old_color="#000000" fill="#FFFFFF"/><path d="m343.082031 108.488281-124.742187-108.308593-125.070313 108.308593zm0 0" data-original="#000000" class="active-path" data-old_color="#000000" fill="#FFFFFF"/><path d="m320.15625 263.488281v-141h-206v141h61v-69.617187c0-3.867188 3.484375-6.382813 7.351562-6.382813h72.472657c3.867187 0 7.175781 2.515625 7.175781 6.382813v69.617187zm0 0" data-original="#000000" class="active-path" data-old_color="#000000" fill="#FFFFFF"/><path d="m368.378906 117.746094c-1 2.777344-3.605468 4.660156-6.558594 4.742187h-27.664062v24h102.203125l-90.523437-78.683593-14 12.039062 34.578124 30.070312c2.207032 1.957032 2.988282 5.066407 1.964844 7.832032zm0 0" data-original="#000000" class="active-path" data-old_color="#000000" fill="#FFFFFF"/><path d="m334.15625 160.488281h87v103h-87zm0 0" data-original="#000000" class="active-path" data-old_color="#000000" fill="#FFFFFF"/><path d="m189.15625 201.488281h59v62h-59zm0 0" data-original="#000000" class="active-path" data-old_color="#000000" fill="#FFFFFF"/><path d="m13.15625 160.488281h87v103h-87zm0 0" data-original="#000000" class="active-path" data-old_color="#000000" fill="#FFFFFF"/></g> </svg>
