<?xml version="1.0"?>
<svg xmlns="http://www.w3.org/2000/svg" height="512px" viewBox="0 -63 512 512" width="512px" class=""><g><path d="m480.933594 276.441406h-449.867188c-8.285156 0-15 6.730469-15 15.015625 0 52.558594 42.757813 95.316407 95.316406 95.316407h289.234376c52.558593 0 95.316406-42.757813 95.316406-95.316407v-.015625c0-8.285156-6.714844-15-15-15zm0 0" data-original="#000000" class="active-path" data-old_color="#000000" fill="#FFFFFF"/><path d="m85.160156 136.191406c.109375.097656.230469.199219.328125.296875 3.730469 3.492188 8.363281 5.480469 13.132813 5.980469h4.917968c4.742188-.5 9.339844-2.488281 13.0625-5.929688.019532-.019531.039063-.039062.058594-.058593 20.21875-18.859375 51.890625-18.871094 72.109375 0 .019531.019531.039063.039062.058594.058593 3.722656 3.441407 8.320313 5.429688 13.0625 5.929688h4.9375c4.730469-.5 9.332031-2.488281 13.050781-5.929688.019532-.019531.042969-.039062.070313-.058593 20.210937-18.859375 51.890625-18.859375 72.101562 0 .027344.019531.050781.039062.070313.058593 3.71875 3.441407 8.320312 5.429688 13.050781 5.929688h4.9375c4.742187-.5 9.339844-2.488281 13.0625-5.929688.019531-.019531.039063-.039062.058594-.058593 20.21875-18.871094 51.890625-18.859375 72.109375 0 .019531.019531.039062.039062.058594.058593 3.703124 3.441407 8.28125 5.410157 13 5.929688h4.980468c4.761719-.5 9.402344-2.5 13.132813-5.980469.097656-.097656.21875-.199219.328125-.296875 18.980468-17.441406 47.839844-18.421875 67.941406-2.972656.738281-1.777344 1.148438-3.730469 1.148438-5.769531 0-70.488281-57.058594-127.449219-127.449219-127.449219h-224.960938c-70.519531 0-127.449219 57.070312-127.449219 127.46875 0 2.042969.410157 3.980469 1.148438 5.761719 20.109375-15.460938 48.972656-14.472657 67.941406 2.960937zm0 0" data-original="#000000" class="active-path" data-old_color="#000000" fill="#FFFFFF"/><path d="m512 199.355469c-.007812-25.988281-21.078125-47.054688-47.070312-47.054688h-2.304688c-5.621094-.015625-11.25 2.019531-15.636719 6.109375-.097656.101563-.207031.199219-.316406.300782-20.230469 18.578124-51.671875 18.488281-71.792969-.289063-.019531-.011719-.039062-.03125-.058594-.050781-8.71875-8.101563-22.339843-8.101563-31.070312 0-.019531.007812-.039062.027344-.058594.050781-5.050781 4.71875-10.820312 8.257813-16.953125 10.617187-6.128906 2.351563-12.617187 3.53125-19.097656 3.53125-12.96875.007813-25.941406-4.710937-36.050781-14.148437-.019532-.023437-.039063-.042969-.058594-.050781-8.722656-8.101563-22.339844-8.101563-31.0625 0-.019531.007812-.039062.027344-.058594.050781-10.109375 9.4375-23.082031 14.148437-36.050781 14.148437s-25.9375-4.710937-36.050781-14.148437c-.019532-.023437-.039063-.042969-.058594-.050781-8.730469-8.101563-22.351562-8.101563-31.070312 0-.019532.019531-.039063.039062-.058594.050781-10.109375 9.429687-23.082032 14.148437-36.050782 14.148437-12.839843 0-25.679687-4.621093-35.742187-13.859374-.109375-.101563-.21875-.199219-.316406-.300782-4.371094-4.070312-9.972657-6.109375-15.582031-6.109375h-2.359376c-25.996093 0-47.070312 21.074219-47.070312 47.070313 0 26.027344 21.070312 47.070312 47.070312 47.070312h417.859376c26.03125 0 47.070312-21.070312 47.070312-47.070312v-.011719zm0 0" data-original="#000000" class="active-path" data-old_color="#000000" fill="#FFFFFF"/></g> </svg>
